<svg width="30" height="32" viewBox="0 0 30 32" fill="none" xmlns="http://www.w3.org/2000/svg">
<mask id="mask0_1995_1090" style="mask-type:luminance" maskUnits="userSpaceOnUse" x="2" y="6" width="26" height="26">
<path d="M3.05676 6.63837H27.4894V31.0001H3.05676V6.63837Z" fill="white" stroke="white" stroke-width="0.3"/>
</mask>
<g mask="url(#mask0_1995_1090)">
<path d="M11.221 6.77753H19.3406C21.5722 6.77753 23.6007 7.84246 25.0708 9.55789C26.5403 11.2728 27.453 13.6403 27.453 16.2451C27.453 18.8492 26.5403 21.2168 25.0708 22.9317C23.6007 24.6471 21.5722 25.7115 19.3406 25.7115H18.4541L13.9494 30.6101C13.5425 31.0511 12.9057 31.0245 12.5268 30.5502C12.3459 30.3236 12.2566 30.0361 12.2566 29.7496H12.2547V25.7115H11.221C8.98936 25.7115 6.9609 24.6471 5.49084 22.9317C4.02078 21.2168 3.10864 18.8492 3.10864 16.2451C3.10864 13.6403 4.02078 11.2728 5.49084 9.55789C6.9609 7.84246 8.98936 6.77753 11.221 6.77753ZM19.3406 9.13291H11.221C9.54633 9.13291 8.02261 9.93356 6.91769 11.2229C5.81277 12.5117 5.12665 14.2903 5.12665 16.2451C5.12665 18.1993 5.81277 19.9773 6.91769 21.2667C8.02261 22.556 9.54633 23.3566 11.221 23.3566H13.2633C13.8207 23.3566 14.2727 23.8841 14.2727 24.5346V27.0463L17.3244 23.7268C17.5092 23.4996 17.7698 23.3566 18.06 23.3566H19.3406C21.0148 23.3566 22.539 22.556 23.6439 21.2667C24.7484 19.9773 25.4345 18.1993 25.4345 16.2451C25.4345 14.2903 24.7484 12.5117 23.6439 11.2229C22.539 9.93356 21.0148 9.13291 19.3406 9.13291Z" fill="#9A958D" stroke="#9A958D" stroke-width="0.3"/>
</g>
<path fill-rule="evenodd" clip-rule="evenodd" d="M14.4287 3.21802H16.0294V8.07617H14.4287V3.21802Z" fill="#9A958D" stroke="#9A958D" stroke-width="0.3"/>
<mask id="mask1_1995_1090" style="mask-type:luminance" maskUnits="userSpaceOnUse" x="12" y="0" width="6" height="6">
<path d="M13.0212 1H17.4184V5.21986H13.0212V1Z" fill="white" stroke="white" stroke-width="0.3"/>
</mask>
<g mask="url(#mask1_1995_1090)">
<path fill-rule="evenodd" clip-rule="evenodd" d="M15.228 1.0105C16.3866 1.0105 17.3263 1.94966 17.3263 3.10768C17.3263 4.26626 16.3866 5.20542 15.228 5.20542C14.0706 5.20542 13.1309 4.26626 13.1309 3.10768C13.1309 1.94966 14.0706 1.0105 15.228 1.0105Z" fill="#9A958D" stroke="#9A958D" stroke-width="0.3"/>
</g>
<mask id="mask2_1995_1090" style="mask-type:luminance" maskUnits="userSpaceOnUse" x="0" y="13" width="5" height="7">
<path d="M1 13.3049H3.9078V19.1205H1V13.3049Z" fill="white" stroke="white" stroke-width="0.3"/>
</mask>
<g mask="url(#mask2_1995_1090)">
<path fill-rule="evenodd" clip-rule="evenodd" d="M3.7992 19.0436C2.25277 19.0436 1 17.7903 1 16.2449C1 14.6991 2.25277 13.4457 3.7992 13.4457V19.0436Z" fill="#9A958D" stroke="#9A958D" stroke-width="0.3"/>
</g>
<path fill-rule="evenodd" clip-rule="evenodd" d="M26.6383 19.0446C28.1836 19.0446 29.4364 17.7913 29.4364 16.246C29.4364 14.7001 28.1836 13.4468 26.6383 13.4468V19.0446Z" fill="#9A958D" stroke="#9A958D" stroke-width="0.3"/>
<path fill-rule="evenodd" clip-rule="evenodd" d="M11.3725 12.8085C12.0452 12.8085 12.5959 13.2559 12.5959 13.8029V16.8146C12.5959 17.3616 12.0452 17.8085 11.3725 17.8085C10.6997 17.8085 10.149 17.3616 10.149 16.8146V13.8029C10.149 13.2559 10.6997 12.8085 11.3725 12.8085Z" fill="#9A958D" stroke="#9A958D" stroke-width="0.3"/>
<path fill-rule="evenodd" clip-rule="evenodd" d="M19.0315 12.8085H19.032C19.7047 12.8085 20.2554 13.2559 20.2554 13.8029V16.8146C20.2554 17.3616 19.7047 17.8085 19.032 17.8085H19.0315C18.3587 17.8085 17.8086 17.3616 17.8086 16.8146V13.8029C17.8086 13.2559 18.3587 12.8085 19.0315 12.8085Z" fill="#9A958D" stroke="#9A958D" stroke-width="0.3"/>
</svg>
