<svg id="eUiLHpRm3VB1" xmlns="http://www.w3.org/2000/svg" xmlns:xlink="http://www.w3.org/1999/xlink" viewBox="0 0 20 21" shape-rendering="geometricPrecision" text-rendering="geometricPrecision"><path d="M3.66464,0h12.67076c1.0077,0,1.9239.411207,2.5886,1.07596s1.076,1.58091,1.076,2.58868v8.17296c0,1.0078-.4112,1.924-1.076,2.5887-.6647.6648-1.5809,1.076-2.5886,1.076h-6.33647L4.43379,20.2855c-.2578.2216-.6477.1918-.86929-.0682-.10866-.1278-.15766-.2855-.14701-.441l.29616-4.2761h-.04901c-1.00777,0-1.92393-.4112-2.58868-1.076C0.411207,13.7616,0,12.8454,0,11.8376v-8.17296c0-1.00777.411207-1.92393,1.07596-2.58868C1.73857,0.411207,2.65474,0,3.66464,0ZM5.4714,9.30649c-.3409,0-.61788-.27698-.61788-.61788s.27698-.61787.61788-.61787h6.4664c.3409,0,.6179.27697.6179.61787s-.277.61788-.6179.61788h-6.4664Zm0-3.05955c-.3409,0-.61788-.27698-.61788-.61788s.27698-.61787.61788-.61787h9.1659c.3409,0,.6178.27697.6178.61787s-.2769.61788-.6178.61788h-9.1659ZM16.3332,1.23575h-12.66856c-.66688,0-1.2741.27272-1.71514.71375s-.71375,1.04613-.71375,1.71514v8.17296c0,.6669.27272,1.2742.71375,1.7152s1.04826.7137,1.71514.7137h.71163v.0022l.04048.0021c.33876.0234.59657.3175.57313.6562l-.24076,3.4644l4.58933-3.9459c.11079-.1108.26419-.179.43464-.179h6.56011c.6669,0,1.2741-.2727,1.7152-.7137.441-.441.7137-1.0483.7137-1.7152v-8.17296c0-.66688-.2727-1.2741-.7137-1.71514-.4389-.44103-1.0462-.71375-1.7152-.71375Z" fill="#382e1e"/></svg>
