<svg width="187" height="205" viewBox="0 0 187 205" fill="none" xmlns="http://www.w3.org/2000/svg">
<circle cx="162.942" cy="71.686" r="104.186" stroke="#CF9F69"/>
<circle cx="46.0338" cy="70.6232" r="9.03382" fill="#CF9F69"/>
<circle cx="144.343" cy="181.686" r="5.31401" fill="#CF9F69"/>
<circle cx="61.9754" cy="78.0628" r="2.657" fill="#00512D"/>
<ellipse cx="56.6622" cy="54.6811" rx="3.71981" ry="3.71981" fill="#00512D"/>
<circle cx="157.628" cy="171.589" r="2.657" fill="#00512D"/>
<path d="M34.1553 139.021C34.1553 135.707 36.8416 133.021 40.1553 133.021H128.387C129.438 133.021 129.958 134.74 129.179 135.444C126.837 137.561 124.134 141.069 124.134 145.982C124.134 151.028 126.984 154.672 129.366 156.838C130.135 157.536 129.622 159.185 128.584 159.185H40.1553C36.8416 159.185 34.1553 156.499 34.1553 153.185V139.021Z" fill="#CF9F69"/>
<path d="M25.8105 113.718C25.8105 109.834 28.9585 106.686 32.8418 106.686H116.664C116.664 106.686 110.173 110.876 109.497 118.794C108.822 126.712 116.664 130.846 116.664 130.846H32.8418C28.9586 130.846 25.8105 127.698 25.8105 123.815V113.718Z" fill="#FCFCFC"/>
<path fill-rule="evenodd" clip-rule="evenodd" d="M117.94 108.653C117.939 108.653 117.938 108.654 117.937 108.655L117.914 108.67C117.884 108.691 117.833 108.726 117.762 108.777C117.622 108.88 117.407 109.043 117.141 109.264C116.607 109.71 115.878 110.384 115.13 111.276C113.63 113.067 112.118 115.653 111.833 118.993C111.57 122.07 112.938 124.462 114.546 126.196C115.347 127.059 116.173 127.719 116.801 128.161C117.112 128.381 117.368 128.543 117.539 128.646C117.624 128.697 117.687 128.734 117.725 128.755C117.744 128.766 117.757 128.773 117.762 128.776L117.76 128.775L117.759 128.774C117.761 128.775 117.763 128.776 117.764 128.777C118.713 129.281 119.197 130.366 118.939 131.409C118.68 132.455 117.742 133.19 116.664 133.19H32.8418C27.6641 133.19 23.4668 128.993 23.4668 123.815V113.718C23.4668 108.54 27.6641 104.343 32.8418 104.343H116.664C117.703 104.343 118.618 105.027 118.912 106.024C119.205 107.018 118.811 108.086 117.943 108.651C117.942 108.651 117.941 108.652 117.94 108.653ZM113.532 128.502C115.164 130.055 116.664 130.846 116.664 130.846H32.8418C28.9586 130.846 25.8105 127.698 25.8105 123.815V113.718C25.8105 109.834 28.9585 106.686 32.8418 106.686H116.664C116.664 106.686 115.434 107.48 113.989 109.03C112.115 111.041 109.879 114.323 109.497 118.794C109.117 123.248 111.433 126.505 113.532 128.502Z" fill="#382E1E"/>
<path d="M19.7959 168.391C19.7959 164.508 22.9439 161.36 26.8271 161.36H110.649C110.649 161.36 104.762 165.041 103.785 173.286C102.807 181.532 110.649 185.52 110.649 185.52H26.8272C22.9439 185.52 19.7959 182.372 19.7959 178.488V168.391Z" fill="#FCFCFC"/>
<path fill-rule="evenodd" clip-rule="evenodd" d="M111.898 163.344C111.898 163.344 111.898 163.343 111.898 163.344C111.896 163.344 111.895 163.345 111.894 163.346C111.894 163.346 111.894 163.346 111.894 163.346M108.033 163.704C109.444 162.114 110.649 161.36 110.649 161.36H26.8271C22.9439 161.36 19.7959 164.508 19.7959 168.391V178.488C19.7959 182.372 22.9439 185.52 26.8272 185.52H110.649C110.649 185.52 109.128 184.746 107.509 183.176C105.452 181.181 103.238 177.9 103.785 173.286C104.32 168.772 106.326 165.627 108.033 163.704ZM111.714 183.431C111.716 183.433 111.718 183.434 111.72 183.435C111.721 183.435 111.722 183.435 111.72 183.435C112.681 183.928 113.181 185.015 112.929 186.066C112.676 187.12 111.733 187.863 110.649 187.863H26.8272C21.6495 187.863 17.4521 183.666 17.4521 178.488V168.391C17.4521 163.213 21.6495 159.016 26.8271 159.016H110.649C111.695 159.016 112.614 159.709 112.902 160.714C113.189 161.714 112.782 162.783 111.904 163.34C111.902 163.341 111.9 163.342 111.898 163.344M111.719 183.434C111.714 183.432 111.703 183.425 111.685 183.416C111.648 183.396 111.587 183.362 111.504 183.313C111.337 183.214 111.086 183.059 110.781 182.846C110.167 182.417 109.36 181.774 108.587 180.921C107.05 179.225 105.727 176.813 106.112 173.562C106.538 169.969 108.026 167.394 109.399 165.714C110.087 164.871 110.745 164.257 111.217 163.862C111.453 163.666 111.64 163.525 111.76 163.439C111.82 163.396 111.862 163.367 111.885 163.352L111.898 163.344L111.895 163.345L111.894 163.346M111.719 183.434L111.718 183.434L111.715 183.432" fill="#382E1E"/>
<path d="M41.1768 140.102H95.8118" stroke="#FCFCFC" stroke-width="2" stroke-linecap="round" stroke-linejoin="round"/>
<path d="M41.1768 146.103H71.0005" stroke="#FCFCFC" stroke-width="2" stroke-linecap="round" stroke-linejoin="round"/>
<path d="M90.1729 105.882H99.884V120.665C99.884 121.556 98.8068 122.002 98.1769 121.372L95.7355 118.931C95.345 118.54 94.7118 118.54 94.3213 118.931L91.88 121.372C91.25 122.002 90.1729 121.556 90.1729 120.665V105.882Z" fill="#00512D"/>
<path d="M25.1377 167.439H79.7727" stroke="#00512D" stroke-width="2" stroke-linecap="round" stroke-linejoin="round"/>
<path d="M25.1377 173.44H54.9614" stroke="#00512D" stroke-width="2" stroke-linecap="round" stroke-linejoin="round"/>
<path d="M32.1543 112.952H78.0176" stroke="#00512D" stroke-width="2" stroke-linecap="round" stroke-linejoin="round"/>
</svg>
