<svg width="200" height="220" viewBox="0 0 200 220" fill="none" xmlns="http://www.w3.org/2000/svg">
<circle cx="175.942" cy="71.686" r="104.186" stroke="#CF9F69"/>
<circle cx="59.0338" cy="70.6232" r="9.03382" fill="#CF9F69"/>
<circle cx="157.343" cy="181.686" r="5.31401" fill="#CF9F69"/>
<circle cx="74.9759" cy="78.0628" r="2.657" fill="#00512D"/>
<ellipse cx="69.6622" cy="54.6811" rx="3.71981" ry="3.71981" fill="#00512D"/>
<circle cx="170.628" cy="171.589" r="2.657" fill="#00512D"/>
<path d="M83.2102 104.622L131.189 97.6533C135.299 97.0563 139.015 100.165 139.153 104.316L141.769 183.08C141.894 186.857 138.985 190.045 135.213 190.266L84.6185 193.226C80.6178 193.46 77.245 190.279 77.245 186.271V111.516C77.245 108.056 79.7854 105.12 83.2102 104.622Z" fill="#CF9F69"/>
<path d="M76.7903 104.622L28.8118 97.6533C24.7017 97.0563 20.9856 100.165 20.8477 104.316L18.2319 183.08C18.1065 186.857 21.0152 190.045 24.7877 190.266L75.382 193.226C79.3827 193.46 82.7555 190.279 82.7555 186.271V111.516C82.7555 108.056 80.2151 105.12 76.7903 104.622Z" fill="#CF9F69"/>
<path d="M82.1089 102.158L129.19 94.2222C130.58 93.9879 131.857 95.0359 131.898 96.4449L134.353 181.243C134.389 182.49 133.432 183.543 132.187 183.627L82.6502 186.948C81.3096 187.038 80.1727 185.974 80.1727 184.631V104.448C80.1727 103.315 80.9911 102.347 82.1089 102.158Z" fill="#FCFCFC"/>
<path fill-rule="evenodd" clip-rule="evenodd" d="M128.804 91.9323L81.723 99.8684C79.4874 100.245 77.8506 102.181 77.8506 104.448V184.631C77.8506 187.318 80.1244 189.444 82.8056 189.265L132.342 185.944C134.833 185.777 136.746 183.671 136.674 181.176L134.219 96.3776C134.137 93.5597 131.584 91.4637 128.804 91.9323ZM129.19 94.2221L82.109 102.158C80.9912 102.347 80.1728 103.315 80.1728 104.448V184.631C80.1728 185.974 81.3097 187.038 82.6503 186.948L132.187 183.627C133.432 183.543 134.389 182.49 134.353 181.243L131.898 96.4448C131.857 95.0358 130.58 93.9879 129.19 94.2221Z" fill="#382E1E"/>
<path d="M82.9557 101.972L123.377 89.1949C124.847 88.7303 126.354 89.8008 126.398 91.3419L128.849 175.992C128.882 177.13 128.085 178.125 126.966 178.34L84.0941 186.583C82.6619 186.858 81.3334 185.761 81.3334 184.302V104.186C81.3334 103.173 81.9899 102.277 82.9557 101.972Z" fill="#FCFCFC"/>
<path fill-rule="evenodd" clip-rule="evenodd" d="M122.678 86.9807L82.2559 99.7574C80.3243 100.368 79.0113 102.16 79.0113 104.186V184.302C79.0113 187.219 81.6683 189.414 84.5326 188.863L127.405 180.62C129.642 180.19 131.236 178.202 131.17 175.925L128.72 91.2747C128.631 88.1925 125.618 86.0514 122.678 86.9807ZM123.377 89.1949L82.9558 101.972C81.99 102.277 81.3335 103.173 81.3335 104.186V184.302C81.3335 185.761 82.662 186.858 84.0941 186.583L126.966 178.34C128.085 178.125 128.882 177.13 128.849 175.992L126.399 91.3419C126.354 89.8008 124.848 88.7302 123.377 89.1949Z" fill="#382E1E"/>
<path d="M91.937 97.4704L99.0661 95.1433V114.228L95.5016 112.041L91.937 115.605V97.4704Z" fill="#00512D"/>
<path fill-rule="evenodd" clip-rule="evenodd" d="M89.6152 97.4705C89.6152 96.4656 90.2616 95.5747 91.2168 95.2629L98.3459 92.9358C99.0531 92.705 99.828 92.8269 100.43 93.2638C101.032 93.7006 101.389 94.3995 101.389 95.1434V114.228C101.389 115.069 100.934 115.844 100.201 116.254C99.467 116.665 98.5687 116.647 97.8521 116.207L95.8488 114.978L93.5794 117.247C92.9153 117.912 91.9165 118.11 91.0488 117.751C90.181 117.391 89.6152 116.545 89.6152 115.605V97.4705ZM99.0665 114.228L95.502 112.041L91.9374 115.605V97.4705L99.0665 95.1434V114.228Z" fill="#382E1E"/>
<path d="M76.8605 102.156L30.1074 94.2254C28.7165 93.9895 27.4384 95.038 27.3978 96.4481L24.9585 181.244C24.9226 182.491 25.8786 183.544 27.1234 183.628L76.3158 186.947C77.6568 187.037 78.7943 185.974 78.7943 184.63V104.446C78.7943 103.313 77.9772 102.346 76.8605 102.156Z" fill="#FCFCFC"/>
<path fill-rule="evenodd" clip-rule="evenodd" d="M30.4957 91.9359L77.2488 99.867C79.4822 100.246 81.1164 102.181 81.1164 104.446V184.63C81.1164 187.318 78.8414 189.444 76.1595 189.263L26.967 185.945C24.4774 185.777 22.5655 183.671 22.6372 181.177L25.0765 96.3813C25.1576 93.561 27.714 91.464 30.4957 91.9359ZM30.1073 94.2254L76.8605 102.156C77.9771 102.346 78.7943 103.313 78.7943 104.446V184.63C78.7943 185.974 77.6568 187.037 76.3158 186.947L27.1233 183.628C25.8785 183.544 24.9225 182.491 24.9584 181.244L27.3977 96.4481C27.4383 95.0379 28.7165 93.9894 30.1073 94.2254Z" fill="#382E1E"/>
<path fill-rule="evenodd" clip-rule="evenodd" d="M65.8714 125.193C67.4035 124.513 69.1546 124.579 70.4917 125.21C71.0716 125.484 71.3198 126.176 71.046 126.756C70.7722 127.336 70.0802 127.584 69.5004 127.31C68.7699 126.965 67.7242 126.911 66.8128 127.315C65.958 127.695 65.1566 128.506 64.8926 130.053C64.6305 131.591 64.9781 133.063 65.7456 134.04C66.4732 134.966 67.6572 135.556 69.4045 135.26C70.0367 135.153 70.636 135.579 70.7431 136.211C70.8501 136.844 70.4243 137.443 69.792 137.55C67.2465 137.981 65.1977 137.101 63.9196 135.474C62.6814 133.898 62.2503 131.734 62.6035 129.663C62.9939 127.373 64.2827 125.897 65.8714 125.193Z" fill="#382E1E"/>
<path fill-rule="evenodd" clip-rule="evenodd" d="M123.94 119.387C123.817 118.757 123.207 118.347 122.577 118.47L85.5534 125.702C84.924 125.825 84.5135 126.435 84.6364 127.064C84.7594 127.694 85.3692 128.104 85.9986 127.981L123.023 120.749C123.652 120.626 124.062 120.016 123.94 119.387Z" fill="#382E1E"/>
<path fill-rule="evenodd" clip-rule="evenodd" d="M123.94 124.725C123.817 124.096 123.207 123.685 122.577 123.808L85.5534 131.041C84.924 131.164 84.5135 131.773 84.6364 132.403C84.7594 133.032 85.3692 133.443 85.9986 133.32L123.023 126.087C123.652 125.964 124.062 125.354 123.94 124.725Z" fill="#382E1E"/>
<path fill-rule="evenodd" clip-rule="evenodd" d="M123.94 146.165C123.817 145.535 123.207 145.125 122.577 145.248L85.5534 152.48C84.924 152.603 84.5135 153.213 84.6364 153.843C84.7594 154.472 85.3692 154.882 85.9986 154.759L123.023 147.527C123.652 147.404 124.062 146.794 123.94 146.165Z" fill="#382E1E"/>
<path fill-rule="evenodd" clip-rule="evenodd" d="M123.94 130.236C123.817 129.606 123.207 129.196 122.577 129.319L85.5534 136.551C84.924 136.674 84.5135 137.284 84.6364 137.914C84.7594 138.543 85.3692 138.953 85.9986 138.83L123.023 131.598C123.652 131.475 124.062 130.865 123.94 130.236Z" fill="#382E1E"/>
<path fill-rule="evenodd" clip-rule="evenodd" d="M123.94 151.675C123.817 151.046 123.207 150.636 122.577 150.758L85.5534 157.991C84.924 158.114 84.5135 158.724 84.6364 159.353C84.7594 159.983 85.3692 160.393 85.9986 160.27L123.023 153.038C123.652 152.915 124.062 152.305 123.94 151.675Z" fill="#382E1E"/>
<path fill-rule="evenodd" clip-rule="evenodd" d="M123.94 135.962C123.817 135.332 123.207 134.922 122.577 135.045L85.5534 142.277C84.924 142.4 84.5135 143.01 84.6364 143.64C84.7594 144.269 85.3692 144.679 85.9986 144.556L123.023 137.324C123.652 137.201 124.062 136.591 123.94 135.962Z" fill="#382E1E"/>
<path fill-rule="evenodd" clip-rule="evenodd" d="M123.94 157.402C123.817 156.772 123.207 156.362 122.577 156.485L85.5534 163.717C84.924 163.84 84.5135 164.45 84.6364 165.079C84.7594 165.709 85.3692 166.119 85.9986 165.996L123.023 158.764C123.652 158.641 124.062 158.031 123.94 157.402Z" fill="#382E1E"/>
<path fill-rule="evenodd" clip-rule="evenodd" d="M107.154 166.682C107.045 166.05 106.444 165.626 105.812 165.735L85.5783 169.223C84.9464 169.332 84.5224 169.932 84.6313 170.564C84.7402 171.196 85.3408 171.62 85.9727 171.511L106.207 168.024C106.839 167.915 107.263 167.314 107.154 166.682Z" fill="#382E1E"/>
<path fill-rule="evenodd" clip-rule="evenodd" d="M32.607 144.322C32.6656 143.683 33.2307 143.213 33.8693 143.272L71.4099 146.716C72.0485 146.775 72.5187 147.34 72.4601 147.978C72.4015 148.617 71.8363 149.087 71.1978 149.028L33.6571 145.584C33.0186 145.526 32.5484 144.961 32.607 144.322Z" fill="#382E1E"/>
<path fill-rule="evenodd" clip-rule="evenodd" d="M32.607 159.816C32.6656 159.178 33.2307 158.708 33.8693 158.766L71.4099 162.21C72.0485 162.269 72.5187 162.834 72.4601 163.473C72.4015 164.111 71.8363 164.581 71.1978 164.523L33.6571 161.079C33.0186 161.02 32.5484 160.455 32.607 159.816Z" fill="#382E1E"/>
<path fill-rule="evenodd" clip-rule="evenodd" d="M32.6047 149.851C32.6478 149.212 33.2013 148.728 33.8411 148.771L54.3335 150.148C54.9733 150.191 55.4571 150.745 55.4141 151.385C55.371 152.025 54.8175 152.508 54.1777 152.465L33.6853 151.088C33.0455 151.045 32.5617 150.491 32.6047 149.851Z" fill="#382E1E"/>
<path fill-rule="evenodd" clip-rule="evenodd" d="M32.605 165.343C32.6497 164.703 33.2046 164.221 33.8443 164.265L63.2536 166.324C63.8933 166.369 64.3756 166.924 64.3308 167.563C64.286 168.203 63.7312 168.685 63.0915 168.641L33.6821 166.582C33.0424 166.537 32.5602 165.982 32.605 165.343Z" fill="#382E1E"/>
<path fill-rule="evenodd" clip-rule="evenodd" d="M32.6047 170.289C32.6478 169.649 33.2013 169.165 33.8411 169.208L54.3335 170.586C54.9733 170.629 55.4571 171.183 55.4141 171.822C55.371 172.462 54.8175 172.946 54.1777 172.903L33.6853 171.525C33.0455 171.482 32.5617 170.929 32.6047 170.289Z" fill="#382E1E"/>
<path fill-rule="evenodd" clip-rule="evenodd" d="M40.238 110.528C40.7333 110.552 41.159 110.887 41.2975 111.364L48.1857 135.042C48.3648 135.657 48.0109 136.302 47.3951 136.481C46.7794 136.66 46.1351 136.306 45.9559 135.69L40.0121 115.258L32.2208 134.848C31.9838 135.444 31.3086 135.735 30.7128 135.498C30.1169 135.261 29.826 134.586 30.063 133.99L39.1037 111.259C39.287 110.798 39.7427 110.504 40.238 110.528Z" fill="#382E1E"/>
<path fill-rule="evenodd" clip-rule="evenodd" d="M45.2624 126.369C45.2624 127.01 44.7426 127.53 44.1013 127.53L34.4147 127.53C33.7734 127.53 33.2536 127.01 33.2536 126.369C33.2536 125.728 33.7734 125.208 34.4147 125.208L44.1013 125.208C44.7426 125.208 45.2624 125.728 45.2624 126.369Z" fill="#382E1E"/>
<path fill-rule="evenodd" clip-rule="evenodd" d="M53.226 120.04V124.784C53.531 124.796 53.8579 124.83 54.1876 124.88C54.6402 124.843 55.1352 124.764 55.6026 124.617C56.1526 124.444 56.5773 124.206 56.8533 123.919C57.1036 123.659 57.2754 123.318 57.2754 122.795C57.2754 121.779 56.6758 121.098 55.5795 120.616C54.8485 120.294 53.9954 120.117 53.226 120.04ZM57.8328 126.11C58.0788 125.943 58.3129 125.751 58.5263 125.529C59.1881 124.842 59.5976 123.925 59.5976 122.795C59.5976 120.504 58.0733 119.176 56.5147 118.491C54.9813 117.816 53.2039 117.642 52.0335 117.674C51.4047 117.691 50.9038 118.205 50.9038 118.834V135.538C50.9038 136.052 51.2415 136.505 51.734 136.651C52.9917 137.025 55.0472 137.162 56.906 136.57C57.8525 136.269 58.7973 135.763 59.5486 134.952C60.3109 134.13 60.8215 133.05 60.9684 131.703C61.275 128.893 59.6067 127.115 57.8328 126.11ZM53.226 127.221C53.4866 127.231 53.7711 127.23 54.0701 127.215C54.7684 127.341 55.5781 127.577 56.3248 127.94C57.8491 128.681 58.8416 129.786 58.6599 131.452C58.564 132.331 58.25 132.937 57.8456 133.374C57.4303 133.822 56.8664 134.146 56.2018 134.357C55.2031 134.675 54.0903 134.702 53.226 134.593V127.221Z" fill="#382E1E"/>
</svg>
